<svg xmlns="http://www.w3.org/2000/svg" width="35.691" height="37.444" viewBox="0 0 35.691 37.444">
  <g id="Group_997" data-name="Group 997" transform="translate(-6158.748 -550.992)">
    <path id="Rectangle_337" data-name="Rectangle 337" d="M5,0H28.959a6.732,6.732,0,0,1,6.732,6.732v23.98a6.732,6.732,0,0,1-6.732,6.732H6.732A6.732,6.732,0,0,1,0,30.712V5A5,5,0,0,1,5,0Z" transform="translate(6158.748 550.992)" fill="#a0ccec"/>
    <g id="Group_996" data-name="Group 996">
      <path id="Path_69956" data-name="Path 69956" d="M6184.454,565.865a1.952,1.952,0,0,0-1.855.3,4.222,4.222,0,0,0-1.4,1.8c-.711,1.677-.432,3.354.686,3.836a1.724,1.724,0,0,0,.61.127,3.278,3.278,0,0,0,2.642-2.261C6185.877,568.024,6185.572,566.347,6184.454,565.865Z" fill="#fff"/>
      <path id="Path_69957" data-name="Path 69957" d="M6169.948,571.809c1.092-.482,1.4-2.159.685-3.836a4.417,4.417,0,0,0-1.4-1.8,1.884,1.884,0,0,0-1.854-.3c-1.093.482-1.4,2.159-.686,3.836a3.32,3.32,0,0,0,2.642,2.261A1.809,1.809,0,0,0,6169.948,571.809Z" fill="#fff"/>
      <path id="Path_69958" data-name="Path 69958" d="M6178.509,567.77a1.476,1.476,0,0,0,.33.025,2.48,2.48,0,0,0,1.8-.965,5.982,5.982,0,0,0,1.245-2.718c.457-2.312-.33-4.345-1.778-4.624s-2.922,1.321-3.379,3.658a5.88,5.88,0,0,0,.152,3A2.271,2.271,0,0,0,6178.509,567.77Z" fill="#fff"/>
      <path id="Path_69959" data-name="Path 69959" d="M6171.192,566.855a2.44,2.44,0,0,0,1.8.966,1.41,1.41,0,0,0,.33-.026,2.267,2.267,0,0,0,1.626-1.651,5.873,5.873,0,0,0,.153-3c-.458-2.337-1.931-3.938-3.379-3.658s-2.21,2.312-1.778,4.624A6.216,6.216,0,0,0,6171.192,566.855Z" fill="#fff"/>
      <path id="Path_69960" data-name="Path 69960" d="M6178.916,569.447a5.886,5.886,0,0,0-2.135-1.271,3.474,3.474,0,0,0-.762-.1h-.152a5.889,5.889,0,0,0-.762.1,5.485,5.485,0,0,0-2.185,1.321l-2.21,2.643a4.476,4.476,0,0,0-1.448,3.632,5.309,5.309,0,0,0,2.337,3.354,4.587,4.587,0,0,0,2.286.66,14.476,14.476,0,0,1,6.4-.66,5.311,5.311,0,0,0,2.338-3.354,4.487,4.487,0,0,0-1.448-3.607Z" fill="#fff"/>
    </g>
  </g>
</svg>
