<svg xmlns="http://www.w3.org/2000/svg" width="35.691" height="37.444" viewBox="0 0 35.691 37.444">
  <g id="Group_1000" data-name="Group 1000" transform="translate(-6392.22 -550.992)">
    <path id="Rectangle_338" data-name="Rectangle 338" d="M5,0H28.959a6.732,6.732,0,0,1,6.732,6.732v23.98a6.732,6.732,0,0,1-6.732,6.732H6.732A6.732,6.732,0,0,1,0,30.712V5A5,5,0,0,1,5,0Z" transform="translate(6392.22 550.992)" fill="#a0ccec"/>
    <g id="Group_999" data-name="Group 999">
      <g id="Group_998" data-name="Group 998">
        <path id="Path_69961" data-name="Path 69961" d="M6417.444,561.246h-2.6V560.7a.951.951,0,0,0-1.9,0v.549H6406.8V560.7a.95.95,0,0,0-1.9,0v.549h-2.576a2.474,2.474,0,0,0-2.471,2.471v12.861a2.475,2.475,0,0,0,2.471,2.471h15.141a2.475,2.475,0,0,0,2.471-2.471V563.717A2.492,2.492,0,0,0,6417.444,561.246Zm-15.12,1.9h2.6v.549a.95.95,0,0,0,1.9,0v-.549h6.145v.549a.951.951,0,0,0,1.9,0v-.549h2.6a.567.567,0,0,1,.57.57v2.513h-16.281v-2.513A.567.567,0,0,1,6402.324,563.147Zm15.12,14h-15.12a.567.567,0,0,1-.57-.57V568.11h16.281v8.468A.6.6,0,0,1,6417.444,577.148Z" fill="#fff"/>
      </g>
    </g>
  </g>
</svg>
