<svg xmlns="http://www.w3.org/2000/svg" width="37.891" height="37.891" viewBox="0 0 37.891 37.891">
  <g id="Group_981" data-name="Group 981" transform="translate(-6628.136 -1436.113)">
    <path id="Path_69935" data-name="Path 69935" d="M6647.081,1474a18.945,18.945,0,1,1,18.946-18.945A18.945,18.945,0,0,1,6647.081,1474Zm0-34.785a15.839,15.839,0,1,0,15.84,15.84A15.839,15.839,0,0,0,6647.081,1439.219Z" fill="#00d819"/>
    <g id="Group_980" data-name="Group 980">
      <g id="Group_979" data-name="Group 979">
        <path id="Path_69936" data-name="Path 69936" d="M6644.774,1456.916c-.795-.734-2.079-2.079-2.935-2.935-.856-.794-1.406-.122-2.446.979-1.161,1.161,0,1.773,1.651,3.424l3,2.995c1.1.979,2.018-.489,3.485-1.9l5.992-6.053c1.9-1.834,2.323-1.834.795-3.3-1.345-1.407-1.284-1.407-3.424.794C6649.91,1451.841,6645.08,1456.733,6644.774,1456.916Z" fill="#00d819" fill-rule="evenodd"/>
      </g>
    </g>
  </g>
</svg>
