<svg xmlns="http://www.w3.org/2000/svg" viewBox="0 0 40.9 34.27"><title>Asset 1</title><g id="Layer_2" data-name="Layer 2"><g id="Layer_1-2" data-name="Layer 1"><path d="M37.07,8.32,33.33,3.74l1-3.74a3.93,3.93,0,0,0-2.81,1.21c-.93,1.22-5.89,10.2-6.82,10.57s-14.49,1.87-18.89.93a.48.48,0,0,0-.12,0L2.06,10.25A1.3,1.3,0,1,0,.54,12.36L3.8,15.11c-1.31,5.13-.35,16.83-.15,19.16h7.68c-.38-1.46-1.42-6.54,1.43-10.43L22,25.34l1.78,8.93h5.53c.09-2.21.59-12.66,1.76-16.41l6.17,2.43,3.64-6.64S37.07,12.06,37.07,8.32Z" fill="#fff"/></g></g></svg>