<svg xmlns="http://www.w3.org/2000/svg" width="16.401" height="16.401" viewBox="0 0 16.401 16.401">
  <g id="Group_1297" data-name="Group 1297" transform="translate(-678.476 -2815.423)">
    <path id="Path_134326" data-name="Path 134326" d="M693.64,2815.927a1.733,1.733,0,0,0-2.444,0l-6.838,6.844a.82.82,0,0,0-.208.361l-.711,2.761a.793.793,0,0,0,.208.759.784.784,0,0,0,.563.236.794.794,0,0,0,.2-.028l2.761-.71a.832.832,0,0,0,.36-.208l6.844-6.839a1.731,1.731,0,0,0,0-2.443Z" fill="#fff"/>
    <path id="Path_134327" data-name="Path 134327" d="M692.042,2823.851a.794.794,0,0,0-.794.793v5.271a.322.322,0,0,1-.321.322H680.384a.322.322,0,0,1-.321-.322v-10.542a.321.321,0,0,1,.321-.321h5.272a.794.794,0,0,0,0-1.588h-5.272a1.91,1.91,0,0,0-1.908,1.909v10.542a1.91,1.91,0,0,0,1.908,1.909h10.543a1.91,1.91,0,0,0,1.908-1.909v-5.271A.793.793,0,0,0,692.042,2823.851Z" fill="#fff"/>
  </g>
</svg>
