<svg xmlns="http://www.w3.org/2000/svg" width="23.775" height="14.985" viewBox="0 0 23.775 14.985">
  <g id="Group_1238" data-name="Group 1238" transform="translate(-616.23 -4872.343)">
    <g id="Group_1237" data-name="Group 1237">
      <path id="Path_130773" data-name="Path 130773" d="M616.667,4878.517c2.722-3.209,7.082-6.174,11.45-6.174,4.465,0,8.838,3.04,11.5,6.426a1.815,1.815,0,0,1,0,2.251,19.294,19.294,0,0,1-2.656,2.782,14.7,14.7,0,0,1-8.84,3.526c-2.774,0-6.261-1.632-8.38-3.292a21.288,21.288,0,0,1-3.071-2.984,2.057,2.057,0,0,1,0-2.535Zm10.312-1.2a1.138,1.138,0,1,1-1.138,1.138A1.138,1.138,0,0,1,626.979,4877.322Zm1.138-1.01a3.524,3.524,0,1,1-3.524,3.524A3.523,3.523,0,0,1,628.117,4876.312Zm6.37-.423a7.494,7.494,0,0,1-.1,8.046,16.379,16.379,0,0,0,4.108-3.793.393.393,0,0,0,0-.5A17.1,17.1,0,0,0,634.487,4875.889Zm-12.793,7.806a7.493,7.493,0,0,1,.078-7.844,18.229,18.229,0,0,0-4.023,3.584.666.666,0,0,0,0,.7A18.62,18.62,0,0,0,621.694,4883.695Zm6.423-9.806a5.947,5.947,0,1,1-5.947,5.947A5.946,5.946,0,0,1,628.117,4873.889Z" fill="#fff" fill-rule="evenodd"/>
    </g>
  </g>
</svg>
