<?xml version="1.0" encoding="utf-8"?>
<!-- Generator: Adobe Illustrator 22.0.1, SVG Export Plug-In . SVG Version: 6.00 Build 0)  -->
<svg version="1.1" id="Layer_1" xmlns="http://www.w3.org/2000/svg" xmlns:xlink="http://www.w3.org/1999/xlink" x="0px" y="0px"
	 viewBox="0 0 871 869.9" style="enable-background:new 0 0 871 869.9;" xml:space="preserve">
<g transform="translate(0.000000,900.000000) scale(0.100000,-0.100000)">
	<path d="M4080,8997.3c-129-6-440-47-600-80c-167-35-446-110-550-149c-150-56-203-76-240-92c-19-9-48-21-65-29
		c-67-28-304-146-360-179c-33-19-67-38-75-41c-25-11-160-95-230-143c-36-24-94-64-130-89c-196-134-510-416-716-642
		c-31-35-195-234-242-295c-29-37-192-275-192-280c0-2-13-23-29-47s-39-61-51-83s-37-67-56-100c-31-56-149-294-179-360
		c-17-40-74-182-90-225c-7-19-20-53-28-75c-15-41-68-211-92-300c-48-177-74-309-115-580c-15-101-40-443-40-560c0-257,36-610,96-920
		c14-75,21-104,61-260c20-79,130-422,148-460c7-16,23-55,35-85c45-113,138-308,192-401c14-26,41-73,59-105c17-33,44-77,58-99
		s30-48,36-58c51-88,239-340,362-485c176-207,417-439,648-621c90-71,341-243,412-282c21-11,54-30,73-41c123-74,442-224,603-284
		c20-8,54-21,75-29c20-8,62-22,92-31s71-23,90-29c19-7,64-21,100-30c36-10,85-23,110-31c46-13,120-31,250-59c41-9,102-22,135-30
		c41-9,64-10,73-3c9,8,12,330,12,1548c0,846-3,1545-6,1554c-5,14-57,16-479,16c-387,0-475,2-484,14c-8,9-10,178-9,612l3,599l474,3
		c330,1,478,6,488,13c10,9,13,106,13,512c0,494,7,651,36,817c43,242,127,463,249,650c54,83,217,252,310,322c173,130,368,221,585,272
		c218,51,218,51,580,50c346-1,465-8,742-50c53-8,112-14,130-14c19,0,44-7,56-16l22-15v-519c0-503-1-520-19-530c-13-6-162-10-418-10
		c-223,0-433-5-478-10c-276-37-430-152-522-390c-38-98-43-174-43-622c0-422,1-438,19-448c13-6,231-10,639-10c666,0,634,3,627-51
		c-7-50-51-329-80-509c-7-47-21-132-30-190s-23-148-31-200c-25-165-43-262-49-269c-4-3-194-8-423-11l-417-5l-3-1553
		c-2-1389,0-1553,13-1559c9-3,37,0,63,6c205,52,241,62,412,119c232,76,493,190,685,297c33,19,67,37,75,41c58,27,311,190,419,271
		c87,64,235,178,251,193c9,8,36,33,60,54c177,155,293,271,474,476c131,148,314,399,423,580c114,189,235,430,298,590
		c9,25,21,53,26,62c11,22,37,93,49,133c5,17,18,57,30,90s28,83,36,110c13,45,22,82,68,265c73,289,126,737,126,1049
		c0,269-37,619-96,901c-30,146-92,377-117,440c-5,14-13,39-17,55c-5,17-23,68-40,115c-18,47-39,103-47,124c-49,134-220,471-322,636
		c-193,314-380,550-646,815c-229,229-474,431-700,575c-246,157-497,291-695,370c-30,12-68,28-85,35c-38,18-170,64-211,74
		c-18,5-37,11-43,15c-11,7-90,31-151,45c-19,5-80,20-135,34c-172,44-299,67-564,102C4722,8994.3,4260,9005.3,4080,8997.3z"/>
</g>
</svg>
