<svg xmlns="http://www.w3.org/2000/svg" width="19.953" height="17.713" viewBox="0 0 19.953 17.713">
  <path id="Path_50891" data-name="Path 50891" d="M13628.174,1006.552a1.553,1.553,0,0,0-.008-2.222L13620.7,997a1.264,1.264,0,1,0-1.789,1.786l4.987,4.972c.246.245.158.443-.189.443h-13.758a1.263,1.263,0,0,0-1.27,1.263h0a1.266,1.266,0,0,0,1.27,1.263h13.758c.35,0,.435.2.189.443l-4.987,4.972a1.264,1.264,0,1,0,1.789,1.786Z" transform="translate(-13608.685 -996.609)" fill="#fff" fill-rule="evenodd"/>
</svg>
