<svg xmlns="http://www.w3.org/2000/svg" viewBox="0 0 42.32 42.32"><title>Asset 2</title><g id="Layer_2" data-name="Layer 2"><g id="Layer_1-2" data-name="Layer 1"><path d="M38.57,4.17a12.27,12.27,0,0,0-17.41-1,12.27,12.27,0,0,0-17.41,1A14.93,14.93,0,0,0,3.75,24l16.37,17.9a1.4,1.4,0,0,0,1,.46,1.42,1.42,0,0,0,1-.46L38.57,24A14.93,14.93,0,0,0,38.57,4.17ZM36.49,22.06,21.16,38.82,5.83,22.06a12.09,12.09,0,0,1,0-16A9.61,9.61,0,0,1,13,2.82a9.63,9.63,0,0,1,7.15,3.25,1.46,1.46,0,0,0,2.08,0,9.48,9.48,0,0,1,14.29,0A12.09,12.09,0,0,1,36.49,22.06Z" fill="#fff"/><path d="M32.44,16.93H28.92l-3.81-5.08a1.41,1.41,0,0,0-2.39.21L18.1,21.31l-2.87-3.82a1.4,1.4,0,0,0-1.12-.56H9.87a1.41,1.41,0,0,0,0,2.82H13.4l3.81,5.08a1.44,1.44,0,0,0,1.13.56h.12a1.43,1.43,0,0,0,1.14-.78l4.62-9.24,2.86,3.81a1.42,1.42,0,0,0,1.13.57h4.23a1.41,1.41,0,1,0,0-2.82Z" fill="#fff"/></g></g></svg>