<svg xmlns="http://www.w3.org/2000/svg" width="25.521" height="25.521" viewBox="0 0 25.521 25.521">
  <path id="Path_130772" data-name="Path 130772" d="M634.092,4820.308a.722.722,0,0,0-1.021,1.022l1.069,1.069-3.8,3.8-.058-.059-.01-.009-1.879-1.879a.723.723,0,0,0-1.022,1.022l1.378,1.377-9.41,9.41a.728.728,0,0,0-.178.295l-1.838,5.868-2.162,2.162a.722.722,0,0,0,1.022,1.021l2.161-2.162,5.868-1.837a.731.731,0,0,0,.295-.179l9.41-9.41,1.378,1.378a.722.722,0,1,0,1.021-1.022l-1.883-1.883-.005,0-.061-.061,3.8-3.8,1.071,1.071a.722.722,0,1,0,1.022-1.021l-1.551-1.551-.03-.033-3.006-3-.033-.031Zm1.07,3.112,1.984,1.984-3.652,3.651-1.983-1.983Zm-5.39,4.252,3.124,3.124-9.284,9.285-4.55,1.425,1.425-4.55,1.669-1.669,1.562,1.563a.723.723,0,0,0,1.022-1.022l-1.563-1.562,1.116-1.115,1.562,1.562a.723.723,0,1,0,1.022-1.022l-1.563-1.562,1.115-1.115,1.563,1.562a.722.722,0,0,0,1.021-1.021l-1.562-1.562Z" transform="translate(-614.951 -4820.097)" fill="#fff" fill-rule="evenodd"/>
</svg>
