<?xml version="1.0" encoding="utf-8"?>
<!-- Generator: Adobe Illustrator 22.0.1, SVG Export Plug-In . SVG Version: 6.00 Build 0)  -->
<svg version="1.1" id="Layer_1" xmlns="http://www.w3.org/2000/svg" xmlns:xlink="http://www.w3.org/1999/xlink" x="0px" y="0px"
	 viewBox="0 0 899.3 899.3" style="enable-background:new 0 0 899.3 899.3;" xml:space="preserve">
<g transform="translate(0.000000,900.000000) scale(0.100000,-0.100000)">
	<path d="M2188.3,8991c9-15-30-31-75-31c-48,0-234-36-261-51c-10-5-30-9-46-9c-15-1-39-7-53-15s-35-14-47-15c-22,0-67-17-126-46
		c-16-8-35-14-42-14s-26-6-42-14c-15-8-77-38-138-67c-60-29-136-70-168-91s-60-38-63-38c-7,0-148-100-174-123c-14-12-36-30-50-39
		c-68-45-327-303-368-368c-9-14-27-36-39-50c-23-26-123-167-123-174c0-3-17-31-38-63s-62-107-91-168c-29-60-59-123-67-138
		c-8-16-14-35-14-42s-6-26-14-42c-29-59-46-104-46-126c-1-12-7-33-15-47s-14-38-15-53c0-16-5-37-10-47c-12-22-38-145-52-250
		c-15-105-15-4655,0-4760c14-105,40-228,52-250c5-10,10-31,10-47c1-15,7-39,15-53s14-35,15-47c0-22,17-67,46-126c8-16,14-35,14-42
		s6-26,14-42c8-15,38-77,67-138c29-60,70-136,91-168s38-60,38-63c0-7,100-148,123-174c12-14,30-36,39-50c41-65,300-323,368-368
		c14-9,36-27,50-39c26-23,167-123,174-123c3,0,31-17,63-38s108-62,168-91c61-29,123-59,138-67c16-8,35-14,42-14s26-6,42-14
		c59-29,104-46,126-46c12-1,33-7,47-15s38-14,53-15c16,0,37-5,47-10c22-12,145-38,250-52c105-15,4655-15,4760,0
		c105,14,228,40,250,52c10,5,31,10,47,10c15,1,39,7,53,15s35,14,47,15c22,0,67,17,126,46c16,8,35,14,42,14s26,6,42,14
		c15,8,78,38,138,67c61,29,136,70,168,91s60,38,63,38c7,0,148,100,174,123c14,12,36,30,50,39c68,45,327,303,368,368
		c9,14,27,36,39,50c23,26,123,167,123,174c0,3,17,31,38,63s62,108,91,168c29,61,59,123,67,138c8,16,14,35,14,42s6,26,14,42
		c29,59,46,104,46,126c1,12,7,33,15,47s14,38,15,53c0,16,4,36,9,46c15,27,51,213,51,261c0,45,16,84,31,75c5-4,9,844,9,2295
		s-4,2299-9,2295c-15-9-31,30-31,75c0,48-36,234-51,261c-5,10-9,30-9,46c-1,15-7,39-15,53s-14,35-15,47c0,22-17,67-46,126
		c-8,16-14,35-14,42s-6,26-14,42c-8,15-38,78-67,138c-29,61-70,136-91,168s-38,60-38,63c0,7-100,148-123,174c-12,14-30,36-39,50
		c-45,68-303,327-368,368c-14,9-36,27-50,39c-26,23-167,123-174,123c-3,0-31,17-63,38s-107,62-168,91c-60,29-123,59-138,67
		c-16,8-35,14-42,14s-26,6-42,14c-59,29-104,46-126,46c-12,1-33,7-47,15s-38,14-53,15c-16,0-36,4-46,9c-27,15-213,51-261,51
		c-45,0-84,16-75,31c4,5-844,9-2295,9S2184.3,8996,2188.3,8991z M6816.3,8437c32-9,72-17,88-17c17,0,39-5,50-11s41-14,67-19
		c44-7,61-12,157-47c137-50,412-196,470-250c11-10,40-33,65-50c58-40,283-265,323-323c17-25,40-54,50-65c54-58,200-333,250-470
		c35-96,40-113,47-157c5-26,13-56,19-67s11-33,11-50c0-16,8-58,18-93c16-59,17-202,17-2328s-1-2269-17-2328c-10-35-18-77-18-93
		c0-17-5-39-11-50s-14-41-19-67c-7-44-12-61-47-157c-50-137-196-412-250-470c-10-11-33-40-50-65c-40-58-265-283-323-323
		c-25-17-54-40-65-50c-58-54-333-200-470-250c-96-35-113-40-157-47c-27-5-54-12-60-17c-7-4-35-10-63-14c-27-4-77-13-110-20
		c-50-12-442-14-2315-14c-2117,0-2259,1-2318,18c-35,9-77,17-93,17c-17,0-39,5-50,11s-41,14-67,19c-44,7-61,12-157,47
		c-137,50-412,196-470,250c-11,10-40,33-65,50c-58,40-283,265-323,323c-17,25-40,54-50,65c-54,58-200,333-250,470
		c-35,96-40,113-47,157c-5,26-13,56-19,67s-11,33-11,50c0,16-8,58-17,93c-17,59-18,202-18,2328s1,2269,17,2328c10,35,18,77,18,93
		c0,17,5,39,11,50s14,41,19,67c7,44,12,61,47,157c50,137,196,412,250,470c10,11,33,40,50,65c40,58,265,283,323,323
		c25,17,54,40,65,50c58,54,333,200,470,250c96,35,113,40,157,47c26,5,56,13,67,19s35,11,55,11c19,0,47,5,63,11c15,7,87,15,158,19
		c72,4,1107,7,2300,6C6605.3,8454,6762.3,8453,6816.3,8437z"/>
	<path d="M6928.3,7834c-27-9-65-22-83-30s-39-14-46-14c-8,0-19-7-26-15s-19-15-27-15c-46,0-244-189-288-274c-8-16-23-45-33-65
		c-56-110-81-269-64-407c7-52,19-108,27-124s15-40,15-53c0-14,7-30,15-37s15-20,15-30s7-23,15-30s15-18,15-24c0-31,215-246,246-246
		c6,0,17-7,24-15s20-15,30-15s23-7,30-15s23-15,37-15c13,0,37-7,53-15c53-27,209-41,307-26c163,23,250,60,375,159
		c134,106,204,217,262,411c21,71,22,262,1,328c-8,26-20,64-26,83c-33,105-84,185-179,280s-175,146-280,179c-19,6-57,18-83,26
		C7196.3,7855,6996.3,7854,6928.3,7834z M7157.3,7318c58-17,137-99,155-161c36-127-76-267-215-267c-62,0-101,17-149,65
		s-65,87-65,149c0,69,27,125,82,169C7029.3,7324,7088.3,7338,7157.3,7318z"/>
	<path d="M4168.3,6935c-22-8-60-15-84-15c-42,0-98-12-216-45c-27-8-61-16-75-19c-28-5-49-12-215-73c-47-17-104-42-125-54
		c-8-4-53-27-100-50c-46-23-109-58-140-78c-73-47-91-58-115-70c-12-5-27-17-35-26c-8-10-33-29-55-43c-124-77-418-372-497-497
		c-14-22-33-47-43-55c-9-8-21-23-26-35c-12-24-23-42-70-115c-20-31-55-94-78-140c-23-47-46-92-50-100c-18-31-45-99-85-207
		c-32-90-38-109-42-133c-3-14-11-47-19-75c-33-118-45-174-45-216c0-24-7-62-15-84c-21-58-21-572,0-630c8-22,15-60,15-84
		c0-42,12-98,45-216c8-27,16-61,19-75c4-24,10-43,42-132c40-109,67-177,85-208c4-8,27-53,50-100c23-46,58-109,78-140
		c47-73,58-91,70-115c5-12,17-27,26-35c10-8,29-33,43-55c79-125,373-420,497-497c22-14,47-33,55-43c8-9,23-21,35-26
		c24-12,42-23,115-70c31-20,94-55,140-78c47-23,92-46,100-50c31-18,99-45,208-85c89-32,108-38,132-42c14-3,48-11,75-19
		c118-33,174-45,216-45c24,0,62-7,84-15c58-21,572-21,630,0c22,8,60,15,84,15c42,0,98,12,216,45c28,8,61,16,75,19c28,5,49,12,215,73
		c47,17,104,42,125,54c8,4,53,27,100,50c46,23,109,58,140,78c73,47,91,58,115,70c12,5,27,17,35,26c8,10,33,29,55,43
		c124,77,418,372,497,497c14,22,33,47,43,55c9,8,21,23,26,35c12,24,23,42,70,115c20,31,55,94,78,140c23,47,46,92,50,100
		c12,21,37,78,54,125c61,166,68,187,73,215c3,14,11,48,19,75c33,118,45,174,45,216c0,24,7,62,15,84c11,31,14,101,14,315
		s-3,284-14,315c-8,22-15,60-15,84c0,42-12,98-45,216c-8,28-16,61-19,75c-2,14-10,41-16,60c-7,19-18,51-25,70c-33,93-68,179-86,210
		c-4,8-27,53-50,100c-23,46-58,109-78,140c-47,73-58,91-70,115c-5,12-17,27-26,35c-10,8-29,33-43,55c-79,125-373,420-497,497
		c-22,14-47,33-55,43c-8,9-23,21-35,26c-24,12-42,23-115,70c-31,20-94,55-140,78c-47,23-92,46-100,50c-31,18-99,45-207,85
		c-90,32-109,38-133,42c-14,3-47,11-75,19c-118,33-174,45-216,45c-24,0-62,7-84,15c-31,11-101,14-315,14S4199.3,6946,4168.3,6935z
		 M4683.3,6415c91-9,178-19,195-24c16-5,57-17,90-26s74-21,90-26c17-6,39-13,50-16s34-11,52-19c17-8,36-14,43-14s38-13,69-29
		s76-39,101-51c45-22,156-90,266-165c76-51,348-323,399-399c75-110,144-221,165-266c12-25,32-65,45-90c24-46,50-112,65-165
		c4-16,13-43,18-60c10-27,22-71,51-180c6-22,18-120,27-217c15-164,15-192,0-361c-9-100-20-196-25-212c-5-17-17-57-26-90
		s-21-73-27-90c-5-16-14-43-18-60c-15-53-41-119-65-165c-13-25-33-65-45-90s-29-57-38-71c-9-15-33-51-52-82c-85-135-123-181-265-322
		c-141-142-187-180-322-265c-31-19-67-43-82-52c-14-9-46-26-71-38s-70-35-101-51s-62-29-69-29s-26-6-43-14c-18-8-41-16-52-19
		s-33-10-50-16c-16-5-57-17-90-26s-73-21-90-26c-16-5-111-16-212-25c-169-15-197-15-366,0c-101,9-196,20-212,25
		c-39,12-135,39-160,45c-25,5-79,25-122,43c-17,7-36,13-43,13s-38,13-69,29s-76,39-101,51c-45,22-156,90-266,165
		c-76,51-348,323-399,399c-75,110-143,221-165,266c-12,25-35,70-51,101s-29,62-29,69s-6,26-14,43c-8,18-16,41-19,52s-10,34-16,50
		c-5,17-17,57-26,90s-21,73-26,90c-5,16-16,111-25,211c-15,167-15,198,0,366c8,101,20,197,25,213c11,37,38,133,45,160
		c5,25,25,79,43,122c7,17,13,36,13,43s13,38,29,69s39,76,51,101c22,45,90,156,165,266c51,76,323,348,399,399c110,75,221,143,266,165
		c25,12,70,35,101,51s62,29,69,29s26,6,43,14c18,8,41,16,52,19s34,10,50,16c17,5,55,16,85,25c30,8,74,20,96,27c42,12,275,35,374,38
		C4493.3,6429,4592.3,6423,4683.3,6415z"/>
</g>
</svg>
