<svg xmlns="http://www.w3.org/2000/svg" width="220.132" height="55.683" viewBox="0 0 220.132 55.683">
  <g id="Group_658" data-name="Group 658" transform="translate(-13816.972 -1322.671)">
    <g id="Group_654" data-name="Group 654">
      <path id="Path_50912" data-name="Path 50912" d="M13942.945,1338.6a11.789,11.789,0,0,1,1.347-.273,11.926,11.926,0,0,1,1.894-.147,9.932,9.932,0,0,1,1.663.126,2.827,2.827,0,0,1,1.241.505,2.288,2.288,0,0,1,.758,1.031,4.791,4.791,0,0,1,.253,1.7v4.125a10.242,10.242,0,0,1,2-.589,11.974,11.974,0,0,1,2.084-.169,10.352,10.352,0,0,1,3.831.715,9.5,9.5,0,0,1,3.2,2.084,9.675,9.675,0,0,1,2.189,3.389,14.177,14.177,0,0,1-.021,9.45,9.1,9.1,0,0,1-2.294,3.388,9.719,9.719,0,0,1-3.6,2.041,15.046,15.046,0,0,1-4.693.7,14.866,14.866,0,0,1-4.714-.653,12.372,12.372,0,0,1-3.283-1.62,3.956,3.956,0,0,1-1.852-3.368Zm9.849,22.435a3.653,3.653,0,0,0,3.01-1.325,6.149,6.149,0,0,0,1.073-3.936,6.057,6.057,0,0,0-1.094-3.956,3.65,3.65,0,0,0-2.946-1.306,5.554,5.554,0,0,0-1.453.168,8.511,8.511,0,0,0-1.325.506v9.176a4.345,4.345,0,0,0,1.114.484A5.918,5.918,0,0,0,13952.794,1361.035Z" fill="#fff"/>
      <path id="Path_50913" data-name="Path 50913" d="M13988.867,1355.774a12.68,12.68,0,0,1-.8,4.652,9.433,9.433,0,0,1-2.251,3.43,9.578,9.578,0,0,1-3.474,2.1,13.413,13.413,0,0,1-4.5.716,12.738,12.738,0,0,1-4.5-.758,9.924,9.924,0,0,1-3.473-2.167,9.663,9.663,0,0,1-2.252-3.431,13.2,13.2,0,0,1,0-9.05,9.66,9.66,0,0,1,2.252-3.43,9.912,9.912,0,0,1,3.473-2.168,12.738,12.738,0,0,1,4.5-.758,12.43,12.43,0,0,1,4.5.779,10.17,10.17,0,0,1,3.474,2.189,9.667,9.667,0,0,1,2.251,3.43A12.026,12.026,0,0,1,13988.867,1355.774Zm-14.732,0a6.663,6.663,0,0,0,.988,3.936,3.21,3.21,0,0,0,2.757,1.367,3.087,3.087,0,0,0,2.716-1.389,6.9,6.9,0,0,0,.946-3.914,6.683,6.683,0,0,0-.967-3.893,3.42,3.42,0,0,0-5.474,0A6.683,6.683,0,0,0,13974.135,1355.774Z" fill="#fff"/>
      <path id="Path_50914" data-name="Path 50914" d="M14005.324,1353.038a2.35,2.35,0,0,0-.736-1.915,3.043,3.043,0,0,0-2-.611,6.682,6.682,0,0,0-1.663.211,4.226,4.226,0,0,0-1.41.631v14.606a9.884,9.884,0,0,1-1.326.253,13.572,13.572,0,0,1-1.872.126,9.915,9.915,0,0,1-1.663-.126,2.842,2.842,0,0,1-1.241-.505,2.413,2.413,0,0,1-.778-1.032,4.436,4.436,0,0,1-.274-1.7v-12.627a3.249,3.249,0,0,1,.484-1.853,5.133,5.133,0,0,1,1.326-1.3,12.047,12.047,0,0,1,3.6-1.642,17.234,17.234,0,0,1,4.819-.631q4.755,0,7.324,2.084a7.043,7.043,0,0,1,2.567,5.787v13.175a9.884,9.884,0,0,1-1.326.253,13.572,13.572,0,0,1-1.872.126,9.915,9.915,0,0,1-1.663-.126,2.832,2.832,0,0,1-1.241-.505,2.414,2.414,0,0,1-.779-1.032,4.455,4.455,0,0,1-.274-1.7Z" fill="#fff"/>
      <path id="Path_50915" data-name="Path 50915" d="M14016.016,1355.774a12.593,12.593,0,0,1,.842-4.82,9.2,9.2,0,0,1,2.336-3.388,9.606,9.606,0,0,1,3.493-2,13.853,13.853,0,0,1,4.314-.652,8.972,8.972,0,0,1,1.642.148,6.562,6.562,0,0,1,1.306.357V1338.6a11.789,11.789,0,0,1,1.347-.273,11.933,11.933,0,0,1,1.9-.147,9.924,9.924,0,0,1,1.661.126,2.836,2.836,0,0,1,1.242.505,2.3,2.3,0,0,1,.758,1.031,4.815,4.815,0,0,1,.252,1.7V1361.5a3.59,3.59,0,0,1-1.852,3.156,12.784,12.784,0,0,1-3.158,1.41,16.405,16.405,0,0,1-9.365-.147,9.963,9.963,0,0,1-3.661-2.188,9.434,9.434,0,0,1-2.273-3.431A12.381,12.381,0,0,1,14016.016,1355.774Zm11.954-5.262a4.553,4.553,0,0,0-3.494,1.306,5.614,5.614,0,0,0-1.22,3.956,5.9,5.9,0,0,0,1.136,3.936,4.088,4.088,0,0,0,3.283,1.325,3.817,3.817,0,0,0,1.368-.231,3.126,3.126,0,0,0,.947-.526v-9.261A3.857,3.857,0,0,0,14027.97,1350.512Z" fill="#fff"/>
    </g>
    <g id="Group_655" data-name="Group 655">
      <path id="Path_50916" data-name="Path 50916" d="M13826.359,1344.914a16.241,16.241,0,0,1,4.692.652,10.043,10.043,0,0,1,3.726,2,9.273,9.273,0,0,1,2.44,3.388,12.181,12.181,0,0,1,.884,4.862,13.411,13.411,0,0,1-.757,4.715,9.229,9.229,0,0,1-2.146,3.388,8.732,8.732,0,0,1-3.347,2.041,13.322,13.322,0,0,1-4.356.674,10.085,10.085,0,0,1-3.367-.548v6.988a11.5,11.5,0,0,1-1.347.273,12.087,12.087,0,0,1-1.895.148,9.815,9.815,0,0,1-1.663-.127,2.82,2.82,0,0,1-1.24-.505,2.284,2.284,0,0,1-.759-1.031,4.814,4.814,0,0,1-.253-1.705v-20.2a3.239,3.239,0,0,1,.484-1.852,5.1,5.1,0,0,1,1.326-1.3,11.174,11.174,0,0,1,3.241-1.348A17.223,17.223,0,0,1,13826.359,1344.914Zm.084,16.079q4.334,0,4.336-5.177a6.213,6.213,0,0,0-1.074-4,3.776,3.776,0,0,0-3.094-1.306,4.954,4.954,0,0,0-1.432.19,5.628,5.628,0,0,0-1.094.442v9.26a6.236,6.236,0,0,0,1.094.421A4.557,4.557,0,0,0,13826.443,1360.993Z" fill="#fff"/>
      <path id="Path_50917" data-name="Path 50917" d="M13852.413,1366.676a14.748,14.748,0,0,1-4.608-.7,10.435,10.435,0,0,1-3.705-2.083,9.646,9.646,0,0,1-2.482-3.494,12.366,12.366,0,0,1-.905-4.924,11.5,11.5,0,0,1,.905-4.778,9.242,9.242,0,0,1,5.745-5.178,12.574,12.574,0,0,1,3.873-.61,11.717,11.717,0,0,1,4.062.673,9.812,9.812,0,0,1,3.157,1.852,8.232,8.232,0,0,1,2.062,2.821,8.639,8.639,0,0,1,.737,3.578,2.872,2.872,0,0,1-.8,2.188,4,4,0,0,1-2.231.969l-10.4,1.557a3.491,3.491,0,0,0,1.893,2.084,7.441,7.441,0,0,0,3.283.694,11.732,11.732,0,0,0,3.263-.442,10.316,10.316,0,0,0,2.5-1.031,3.535,3.535,0,0,1,1.138,1.178,3.09,3.09,0,0,1-1.306,4.42,9.343,9.343,0,0,1-3.03.968A21.272,21.272,0,0,1,13852.413,1366.676Zm-1.178-16.542a4.171,4.171,0,0,0-1.747.336,3.453,3.453,0,0,0-1.895,2.042,4.83,4.83,0,0,0-.273,1.326l7.2-1.179a3.183,3.183,0,0,0-.926-1.684A3.1,3.1,0,0,0,13851.235,1350.134Z" fill="#fff"/>
      <path id="Path_50918" data-name="Path 50918" d="M13871.86,1358.973a1.735,1.735,0,0,0,.693,1.558,3.51,3.51,0,0,0,1.957.462,8.366,8.366,0,0,0,1.307-.105,7.269,7.269,0,0,0,1.178-.273,5.139,5.139,0,0,1,.652,1.031,3.128,3.128,0,0,1,.273,1.368,3.252,3.252,0,0,1-1.2,2.61q-1.2,1.009-4.229,1.01a8.618,8.618,0,0,1-5.7-1.684q-2-1.683-2-5.472v-18.015q.461-.126,1.325-.274a10.889,10.889,0,0,1,1.831-.147,5.389,5.389,0,0,1,2.884.653q1.03.653,1.031,2.756v2.694h5.514a7.291,7.291,0,0,1,.484,1.158,4.864,4.864,0,0,1,.23,1.536,2.917,2.917,0,0,1-.652,2.126,2.357,2.357,0,0,1-1.745.652h-3.831Z" fill="#fff"/>
    </g>
    <g id="Group_657" data-name="Group 657">
      <g id="Group_656" data-name="Group 656">
        <path id="Path_50919" data-name="Path 50919" d="M13904.721,1327.132a13.982,13.982,0,0,0-5.868-4.351,1.693,1.693,0,0,0-2.231,1.136,14.156,14.156,0,0,0-.187,6.481A26.609,26.609,0,0,1,13904.721,1327.132Z" fill="#e4a039"/>
        <path id="Path_50920" data-name="Path 50920" d="M13924.088,1330.4a14.152,14.152,0,0,0-.185-6.482,1.694,1.694,0,0,0-2.232-1.136,14,14,0,0,0-5.87,4.353,26.567,26.567,0,0,1,8.159,3.186C13924,1330.345,13924.045,1330.373,13924.088,1330.4Z" fill="#e4a039"/>
      </g>
      <path id="Path_50921" data-name="Path 50921" d="M13923.081,1331.8a24.877,24.877,0,0,0-8.568-3.164,24.981,24.981,0,0,0-9.129.113,25.047,25.047,0,1,0,17.7,3.051Zm-12.819,35.631c-.046,0-.091,0-.137,0l-.023,0c-.179,0-.356-.011-.535-.016h-.033a19.976,19.976,0,0,1-14.351-6.91c-2.457-2.887-5.131-7.964-3.859-15.743.178-1.092.873-1.774,1.834-1.632.943.14,1.454.933,1.267,2.135a15.526,15.526,0,0,0,1.95,10.569,14.115,14.115,0,1,1,13.888,11.6Z" fill="#e4a039"/>
    </g>
  </g>
</svg>
