<svg xmlns="http://www.w3.org/2000/svg" width="37.89" height="37.891" viewBox="0 0 37.89 37.891">
  <g id="Group_977" data-name="Group 977" transform="translate(-6386.887 -1436.113)">
    <path id="Path_69932" data-name="Path 69932" d="M6405.832,1474a18.945,18.945,0,1,1,18.945-18.945A18.945,18.945,0,0,1,6405.832,1474Zm0-34.785a15.839,15.839,0,1,0,15.84,15.84A15.84,15.84,0,0,0,6405.832,1439.219Zm2.106,25.362h-4.218a1.994,1.994,0,0,1-1.988-1.987v-3.436H6398.3a1.993,1.993,0,0,1-1.987-1.987v-4.224a1.994,1.994,0,0,1,1.987-1.988h3.435v-3.435a2,2,0,0,1,1.988-1.988h4.218a1.994,1.994,0,0,1,1.994,1.988v3.435h3.435a1.994,1.994,0,0,1,1.987,1.988v4.224a1.993,1.993,0,0,1-1.987,1.987h-3.435v3.436A1.994,1.994,0,0,1,6407.938,1464.581Zm-9.641-11.758a.136.136,0,0,0-.124.124v4.224a.137.137,0,0,0,.124.124h4.348a.932.932,0,0,1,.932.932v4.348a.136.136,0,0,0,.124.124h4.218a.137.137,0,0,0,.131-.124v-4.348a.931.931,0,0,1,.931-.932h4.348a.13.13,0,0,0,.125-.124v-4.224a.13.13,0,0,0-.125-.124h-4.348a.932.932,0,0,1-.931-.932v-4.348a.137.137,0,0,0-.131-.124h-4.2a.136.136,0,0,0-.124.124v4.348a.932.932,0,0,1-.932.932Z" fill="#00d819"/>
  </g>
</svg>
