<svg xmlns="http://www.w3.org/2000/svg" width="135.184" height="131.341" viewBox="0 0 135.184 131.341">
  <g id="Group_1385" data-name="Group 1385" transform="translate(-432.643 -617.028)">
    <rect id="Rectangle_596" data-name="Rectangle 596" width="135.184" height="131.342" rx="7" transform="translate(432.643 617.028)" fill="#e5e5e5"/>
    <g id="Group_1296" data-name="Group 1296" transform="translate(-0.957 -2033.133)">
      <path id="Path_134325" data-name="Path 134325" d="M502.111,2678.019a38.408,38.408,0,1,1-38.408,38.409A38.336,38.336,0,0,1,502.111,2678.019Zm0,18.586a14.276,14.276,0,0,1,14.248,14.247,14.009,14.009,0,0,1-8.672,13.009,23.8,23.8,0,0,1,17.347,17.551,33.866,33.866,0,1,0-45.845,0,23.791,23.791,0,0,1,17.347-17.551,14.186,14.186,0,0,1,5.575-27.256Zm19,47.909a.751.751,0,0,0-.207-.618,19.013,19.013,0,0,0-37.58,0c0,.207-.207.414-.207.618a34.1,34.1,0,0,0,37.993,0Zm-19-43.366a9.7,9.7,0,1,0,9.705,9.7A9.693,9.693,0,0,0,502.111,2701.148Z" fill="#fff"/>
    </g>
  </g>
</svg>
