<svg xmlns="http://www.w3.org/2000/svg" width="26.462" height="15.829" viewBox="0 0 26.462 15.829">
  <g id="Group_1294" data-name="Group 1294" transform="translate(-787.452 -2816.781)">
    <g id="Group_1293" data-name="Group 1293">
      <path id="Path_134323" data-name="Path 134323" d="M793.053,2821.408a4.007,4.007,0,0,1,1.38.163,6.454,6.454,0,0,1,6.25-4.79,6.625,6.625,0,0,1,6.332,4.79,3.344,3.344,0,0,1,1.3-.163,5.6,5.6,0,0,1,0,11.2h-15.26a5.6,5.6,0,0,1,0-11.2Zm15.26,9.822a4.192,4.192,0,0,0,4.221-4.221,4.261,4.261,0,0,0-4.221-4.3,4.1,4.1,0,0,0-.974.162,1.452,1.452,0,0,1-1.7-.974,5.069,5.069,0,0,0-4.952-3.734,5.214,5.214,0,0,0-4.952,3.734,1.326,1.326,0,0,1-1.623.974,4.777,4.777,0,0,0-1.055-.162,4.261,4.261,0,0,0-4.221,4.3,4.192,4.192,0,0,0,4.221,4.221Z" fill="#fff" fill-rule="evenodd"/>
      <path id="Path_134324" data-name="Path 134324" d="M797.355,2826.6a.661.661,0,0,1,.893-.975l1.461,1.462,3.409-3.41a.69.69,0,0,1,.974.974l-3.9,3.9a.74.74,0,0,1-.974,0Z" fill="#fff"/>
    </g>
  </g>
</svg>
