<svg xmlns="http://www.w3.org/2000/svg" width="21.202" height="21.201" viewBox="0 0 21.202 21.201">
  <g id="Group_1090" data-name="Group 1090" transform="translate(-3882.733 -974.153)">
    <path id="Path_78237" data-name="Path 78237" d="M3895.859,974.653a.842.842,0,1,0,0,1.683h4.208a1.662,1.662,0,0,1,1.683,1.684v4.208a.842.842,0,1,0,1.684,0V978.02a3.378,3.378,0,0,0-3.367-3.367Z" fill="#42388d" stroke="#42388d" stroke-miterlimit="10" stroke-width="1"/>
    <path id="Path_78238" data-name="Path 78238" d="M3886.6,974.653a3.378,3.378,0,0,0-3.367,3.367v4.208a.842.842,0,1,0,1.684,0V978.02a1.662,1.662,0,0,1,1.683-1.684h4.208a.842.842,0,1,0,0-1.683Z" fill="#42388d" stroke="#42388d" stroke-miterlimit="10" stroke-width="1"/>
    <path id="Path_78239" data-name="Path 78239" d="M3884.063,986.425a.841.841,0,0,0-.83.853v4.209a3.378,3.378,0,0,0,3.367,3.367h4.208a.842.842,0,1,0,0-1.684H3886.6a1.661,1.661,0,0,1-1.683-1.683v-4.209a.842.842,0,0,0-.854-.853Z" fill="#42388d" stroke="#42388d" stroke-miterlimit="10" stroke-width="1"/>
    <path id="Path_78240" data-name="Path 78240" d="M3902.581,986.425a.841.841,0,0,0-.831.853v4.209a1.661,1.661,0,0,1-1.683,1.683h-4.208a.842.842,0,1,0,0,1.684h4.208a3.378,3.378,0,0,0,3.367-3.367v-4.209a.84.84,0,0,0-.853-.853Z" fill="#42388d" stroke="#42388d" stroke-miterlimit="10" stroke-width="1"/>
  </g>
</svg>
