<svg xmlns="http://www.w3.org/2000/svg" width="37.891" height="37.891" viewBox="0 0 37.891 37.891">
  <g id="Group_978" data-name="Group 978" transform="translate(-6161.694 -1436.113)">
    <path id="Path_69933" data-name="Path 69933" d="M6180.67,1445.476a1.153,1.153,0,0,0-.919.63l-2.07,4.144-4.645,1.027a1.152,1.152,0,0,0-.878,1.373,1.165,1.165,0,0,0,.248.5l3.133,3.657-.54,4.684a1.152,1.152,0,0,0,1.674,1.153l4.1-2.126,4.1,2.126a1.153,1.153,0,0,0,1.674-1.153l-.54-4.684,3.132-3.657a1.153,1.153,0,0,0-.13-1.625,1.139,1.139,0,0,0-.5-.248l-4.645-1.027-2.07-4.144a1.154,1.154,0,0,0-1.134-.63Zm.108,3.729,1.269,2.541a1.156,1.156,0,0,0,.783.611l3.313.739-2.211,2.572a1.16,1.16,0,0,0-.274.887l.342,3.045-2.7-1.406a1.133,1.133,0,0,0-1.044,0l-2.7,1.406.342-3.045a1.163,1.163,0,0,0-.273-.887l-2.211-2.572,3.331-.743a1.115,1.115,0,0,0,.755-.59l1.279-2.558Z" fill="#00d819"/>
    <path id="Path_69934" data-name="Path 69934" d="M6180.639,1474a18.945,18.945,0,1,1,18.946-18.945A18.945,18.945,0,0,1,6180.639,1474Zm0-34.785a15.839,15.839,0,1,0,15.84,15.84A15.841,15.841,0,0,0,6180.639,1439.219Z" fill="#00d819"/>
  </g>
</svg>
