<?xml version="1.0" encoding="utf-8"?>
<!-- Generator: Adobe Illustrator 22.0.1, SVG Export Plug-In . SVG Version: 6.00 Build 0)  -->
<svg version="1.1" id="Layer_1" xmlns="http://www.w3.org/2000/svg" xmlns:xlink="http://www.w3.org/1999/xlink" x="0px" y="0px"
	 viewBox="0 0 712.4 585.6" style="enable-background:new 0 0 712.4 585.6;" xml:space="preserve">
<g transform="translate(0.000000,900.000000) scale(0.100000,-0.100000)">
	<path d="M4825,8996.3c-336-21-646-158-896-396c-89-85-215-237-258-312c-32-55-111-219-111-229c0-6-6-25-14-43c-41-98-74-262-81-408
		c-5-104,5-294,21-377l6-33h-43c-139,0-470,46-659,92c-25,6-63,14-85,18c-22,3-56,11-75,18c-19,6-62,18-95,28c-33,9-76,22-95,29
		s-51,18-70,24c-19,7-48,16-65,21c-26,7-61,20-130,49c-11,5-45,19-75,31c-98,39-325,149-395,192c-16,10-37,21-45,25
		c-79,36-271,163-445,292c-236,175-463,386-658,608c-45,51-87,93-93,93c-21,0-97-170-141-315c-47-153-63-262-63-422
		c0-162,31-346,76-451c8-18,14-37,14-42c0-11,71-159,103-215c35-61,92-147,116-174c12-13,21-28,21-32c0-15,237-247,269-263
		c103-54-95-46-299,11c-87,24-165,55-243,95c-63,33-70,23-62-90c7-115,27-213,67-342c29-90,106-261,148-325c11-16,23-37,26-45
		c11-24,113-149,173-213c53-56,221-197,251-210c8-4,29-16,45-27c81-52,258-131,340-151c43-11,82-35,72-45c-23-23-453-43-537-25
		c-70,15-78,6-55-56c74-196,201-388,357-539c142-138,248-208,458-307c107-50,346-107,450-107c92,0,88-12-31-95
		c-165-113-373-230-524-294c-44-18-94-40-112-47c-17-8-37-14-45-14s-18-4-24-8c-25-23-310-101-459-126c-49-8-119-20-155-27
		c-37-7-203-14-383-16c-174-3-317-9-317-14c0-20,350-209,550-297c123-54,298-120,375-142c17-4,44-13,60-18c17-6,55-17,85-26
		c30-8,78-21,105-29c98-28,313-70,465-91c680-95,1414-21,2060,209c57,21,123,46,158,61c17,8,47,20,65,28c37,16,360,176,385,191
		c10,6,40,23,67,39c64,37,308,200,360,240c222,172,483,421,661,631c88,105,284,370,329,447c5,9,29,48,51,85c56,91,79,132,131,233
		c25,47,53,101,63,120c33,62,116,256,156,363c8,20,21,55,29,77c37,98,44,118,60,175c10,33,24,78,31,100c27,87,62,236,88,370
		c57,298,76,494,76,766v216l46,33c74,53,192,155,293,253c181,176,395,447,373,469c-7,7-16,8-24,2c-70-52-606-204-718-204
		c-41,0-38,12,13,45c141,94,288,244,380,389c29,45,58,90,65,101c6,11,17,31,23,45c5,13,20,45,33,70c29,59,51,128,43,136
		c-3,4-30-6-59-21c-168-89-360-174-478-210c-30-10-71-23-90-30c-40-15-114-35-217-61l-71-17l-69,62
		C5634,8891.3,5259,9024.3,4825,8996.3z"/>
</g>
</svg>
