<svg xmlns="http://www.w3.org/2000/svg" width="19.617" height="19.769" viewBox="0 0 19.617 19.769">
  <g id="Group_1095" data-name="Group 1095" transform="translate(-4018.369 -973.841)">
    <g id="Group_1094" data-name="Group 1094">
      <g id="Group_1093" data-name="Group 1093">
        <path id="Path_78241" data-name="Path 78241" d="M4037.029,980.553H4034.5a.957.957,0,1,0,0,1.914h1.572V991.7h-15.789v-9.229h1.572a.957.957,0,1,0,0-1.914h-2.529a.957.957,0,0,0-.957.957v11.143a.957.957,0,0,0,.957.957h17.7a.956.956,0,0,0,.957-.957V981.51A.957.957,0,0,0,4037.029,980.553Z" fill="#42388d"/>
        <path id="Path_78242" data-name="Path 78242" d="M4029.134,988.932V977.1l2.088,2.088a.957.957,0,0,0,1.354-1.353l-3.722-3.722a.993.993,0,0,0-1.014-.214c.049-.288-4.014,3.931-4.061,3.936a.957.957,0,0,0,1.353,1.353l2.088-2.088v11.832A.957.957,0,0,0,4029.134,988.932Z" fill="#42388d"/>
      </g>
    </g>
  </g>
</svg>
