<?xml version="1.0" encoding="utf-8"?>
<!-- Generator: Adobe Illustrator 22.0.1, SVG Export Plug-In . SVG Version: 6.00 Build 0)  -->
<svg version="1.1" id="Layer_1" xmlns="http://www.w3.org/2000/svg" xmlns:xlink="http://www.w3.org/1999/xlink" x="0px" y="0px"
	 viewBox="0 0 719.9 514.7" style="enable-background:new 0 0 719.9 514.7;" xml:space="preserve">
<g transform="translate(0.000000,900.000000) scale(0.100000,-0.100000)">
	<path d="M1285,8997.6c-184-21-273-39-355-69c-88-32-196-80-211-92c-8-7-19-13-23-13c-10,0-142-87-180-118c-78-65-236-235-280-302
		c-103-156-180-338-206-485c-5-27-14-77-19-110c-7-40-11-506-11-1385c0-1408-1-1394,47-1560c45-160,134-343,226-465
		c51-68,238-248,310-298c37-26,70-47,72-47s26-13,52-28c153-89,345-145,556-162c175-14,4499-14,4674,0c211,17,403,73,556,162
		c26,15,50,28,52,28c20,0,162,116,256,210c215,215,331,442,384,750c14,85,16,236,12,1455c-2,1054-6,1371-16,1410
		c-37,147-44,173-58,210c-98,264-259,481-478,641c-100,74-101,74-210,128c-106,53-154,70-255,95c-192,48-66,45-2535,47
		C2363,9000.6,1302,8999.6,1285,8997.6z M2739,7481.6c31-18,65-38,76-45s29-17,40-23s34-19,50-30c17-11,37-23,45-27s59-33,113-65
		s100-58,102-58s21-12,42-26s47-30,58-35s27-13,35-19c8-5,96-57,195-115c99-58,187-110,195-115c8-6,24-14,35-19s37-21,58-35
		s40-26,42-26s48-26,102-58s105-61,113-65s29-16,45-27c17-11,39-24,50-30c11-5,27-14,35-20c38-25,318-187,333-193c22-8,22-46,0-54
		c-10-4-83-46-163-93s-152-89-160-93s-28-16-45-27c-16-11-39-24-50-30c-11-5-27-14-35-20c-26-17-221-130-225-130c-2,0-21-12-42-26
		s-47-30-58-35s-27-13-35-19c-8-5-96-57-195-115s-187-110-195-115c-8-6-24-14-35-19s-37-21-58-35s-40-26-42-26s-48-26-102-58
		s-105-61-113-65s-28-16-45-27c-16-11-39-24-50-30s-42-24-70-40c-73-44-114-64-120-58c-4,3-7,1412-5,2161
		C2660,7520.6,2675,7517.6,2739,7481.6z"/>
</g>
</svg>
